<svg width="40" height="40" viewBox="0 0 40 40" fill="none" xmlns="http://www.w3.org/2000/svg">
<path fill-rule="evenodd" clip-rule="evenodd" d="M40 20C40 31.0457 31.0457 40 20 40C8.95431 40 0 31.0457 0 20C0 8.95431 8.95431 0 20 0C31.0457 0 40 8.95431 40 20ZM19.84 10.32C22.72 10.32 25.04 12.64 25.04 15.52V16.84C23.32 16.64 21.56 16.56 19.84 16.56C18.12 16.56 16.36 16.64 14.64 16.84V15.52C14.64 12.68 16.96 10.32 19.84 10.32ZM29.8 20.96L29.28 25.52C30.68 25.52 31.84 24.48 31.84 23.2C31.84 22.12 30.96 21.16 29.8 20.96ZM10.36 25.52C8.96 25.52 7.8 24.48 7.8 23.2C7.8 22.08 8.68 21.16 9.84 20.96L10.36 25.52ZM19.88 17.56C22.32 17.56 24.84 17.68 27.48 17.96C28.36 18.04 28.96 18.8 28.96 19.68L28.16 27.44C28.08 28.16 27.48 28.76 26.76 28.84C24.52 29.12 22.24 29.24 19.92 29.24C17.6 29.24 15.32 29.12 13.08 28.84C12.32 28.76 11.76 28.16 11.68 27.44L10.88 19.68C10.76 18.84 11.4 18.04 12.28 17.96C14.88 17.68 17.44 17.56 19.88 17.56ZM14.32 23.52C14.32 24.36 14.8 25 15.44 25C16.08 25 16.56 24.36 16.56 23.52C16.56 22.68 16.04 22.04 15.44 22.04C14.84 22.04 14.32 22.68 14.32 23.52ZM22.04 26.84C22.08 26.8 22.12 26.72 22.12 26.64V25.92C22.12 25.76 22 25.64 21.84 25.64H21.76C21.6 25.64 21.48 25.76 21.48 25.92V26.28H18.24V25.92C18.24 25.76 18.12 25.64 17.96 25.64H17.88C17.72 25.64 17.6 25.76 17.6 25.92V26.64C17.6 26.72 17.64 26.8 17.68 26.84C17.72 26.88 17.8 26.92 17.88 26.92H21.84C21.92 26.92 22 26.88 22.04 26.84ZM23.12 23.52C23.12 24.36 23.6 25 24.24 25C24.88 25 25.36 24.36 25.36 23.52C25.36 22.68 24.84 22.04 24.24 22.04C23.64 22.04 23.12 22.68 23.12 23.52Z" fill="#436850"/>
</svg>
