<svg width="25" height="19" viewBox="0 0 25 19" fill="none" xmlns="http://www.w3.org/2000/svg">
<path d="M12.04 0C14.92 0 17.24 2.32 17.24 5.2V6.52C15.52 6.32 13.76 6.24 12.04 6.24C10.32 6.24 8.55997 6.32 6.83997 6.52V5.2C6.83997 2.36 9.15997 0 12.04 0Z" fill="#FBFADA"/>
<path d="M21.48 15.2001L22 10.6401C23.16 10.8401 24.04 11.8001 24.04 12.8801C24.04 14.1601 22.88 15.2001 21.48 15.2001Z" fill="#FBFADA"/>
<path d="M2.56 15.2001C1.16 15.2001 0 14.1601 0 12.8801C0 11.7601 0.88 10.8401 2.04 10.6401L2.56 15.2001Z" fill="#FBFADA"/>
<path d="M19.6799 7.64023C17.0399 7.36023 14.5199 7.24023 12.0799 7.24023C9.63991 7.24023 7.07991 7.36023 4.47991 7.64023C3.59991 7.72023 2.95991 8.52023 3.07991 9.36023L3.87991 17.1202C3.95991 17.8402 4.51991 18.4402 5.27991 18.5202C7.51991 18.8002 9.79991 18.9202 12.1199 18.9202C14.4399 18.9202 16.7199 18.8002 18.9599 18.5202C19.6799 18.4402 20.2799 17.8402 20.3599 17.1202L21.1599 9.36023C21.1599 8.48023 20.5599 7.72023 19.6799 7.64023ZM7.63991 14.6802C6.99991 14.6802 6.51991 14.0402 6.51991 13.2002C6.51991 12.3602 7.03991 11.7202 7.63991 11.7202C8.23991 11.7202 8.75991 12.3602 8.75991 13.2002C8.75991 14.0402 8.27991 14.6802 7.63991 14.6802ZM14.3199 16.3202C14.3199 16.4002 14.2799 16.4802 14.2399 16.5202C14.1999 16.5602 14.1199 16.6002 14.0399 16.6002H10.0799C9.99991 16.6002 9.91991 16.5602 9.87991 16.5202C9.83991 16.4802 9.79991 16.4002 9.79991 16.3202V15.6002C9.79991 15.4402 9.91991 15.3202 10.0799 15.3202H10.1599C10.3199 15.3202 10.4399 15.4402 10.4399 15.6002V15.9602H13.6799V15.6002C13.6799 15.4402 13.7999 15.3202 13.9599 15.3202H14.0399C14.1999 15.3202 14.3199 15.4402 14.3199 15.6002V16.3202ZM16.4399 14.6802C15.7999 14.6802 15.3199 14.0402 15.3199 13.2002C15.3199 12.3602 15.8399 11.7202 16.4399 11.7202C17.0399 11.7202 17.5599 12.3602 17.5599 13.2002C17.5599 14.0402 17.0799 14.6802 16.4399 14.6802Z" fill="#FBFADA"/>
</svg>
