<svg width="40" height="40" viewBox="0 0 40 40" fill="none" xmlns="http://www.w3.org/2000/svg">
<path fill-rule="evenodd" clip-rule="evenodd" d="M20 40C31.0457 40 40 31.0457 40 20C40 8.9543 31.0457 0 20 0C8.9543 0 0 8.9543 0 20C0 31.0457 8.9543 40 20 40ZM15.2406 14.0222C15.2406 16.9422 17.4391 19.1847 19.9941 19.1847C22.5371 19.1847 24.7475 16.9422 24.7475 14.0456C24.7475 11.1841 22.5371 9 19.9941 9C17.4509 9 15.2406 11.1373 15.2406 14.0222ZM12.5312 30H27.4569C29.3346 30 30 29.4744 30 28.4466C30 25.4332 26.1616 21.2753 19.9941 21.2753C13.8384 21.2753 10 25.4332 10 28.4466C10 29.4744 10.6655 30 12.5312 30Z" fill="#12372A"/>
</svg>
